<svg width="500" height="500" viewBox="0 0 32 32" xmlns="http://www.w3.org/2000/svg">
  <defs>
    <filter id="neonGlow" x="-50%" y="-50%" width="200%" height="200%">
      <feGaussianBlur stdDeviation="0.6" result="blur1" />
      <feGaussianBlur stdDeviation="0.2" result="blur2" />
      
      <feFlood flood-color="#b9fdff" result="color" />
      <feComposite in="color" in2="blur1" operator="in" result="softGlow" />
      <feComposite in="color" in2="blur2" operator="in" result="sharpGlow" />
      
      <feMerge>
        <feMergeNode in="softGlow" />
        <feMergeNode in="sharpGlow" />
        <feMergeNode in="SourceGraphic" /> </feMerge>
    </filter>
  </defs>
  
  <g filter="url(#neonGlow)" opacity="1">

    <path 
      fill="none" 
      stroke="#b6feff" 
      stroke-width="1" 
      stroke-linecap="round" 
      stroke-linejoin="round"
      d="M8.956 12.805c1.921 0.004 3.599 1.041 4.508 2.586l0.013 0.025c0.132 0.225 0.373 0.374 0.649 0.374 0.414 0 0.75-0.336 0.75-0.75 0-0.138-0.037-0.268-0.103-0.38l0.002 0.004c-1.058-1.795-2.878-3.043-5.004-3.303l-0.033-0.003 6.79-4.535c0.2-0.137 0.33-0.364 0.33-0.622 0-0.415-0.336-0.751-0.751-0.751-0.154 0-0.297 0.046-0.416 0.126l0.003-0.002-8.56 5.717 5.792-8.874c0.077-0.116 0.122-0.258 0.122-0.41 0-0.414-0.336-0.75-0.75-0.75-0.262 0-0.492 0.134-0.626 0.337l-0.002 0.003-7.359 11.276 0.917-8.266c0.003-0.024 0.004-0.053 0.004-0.082 0-0.414-0.336-0.75-0.75-0.75-0.384 0-0.701 0.289-0.745 0.662l-0 0.003-1.352 12.185c-0.054 0.28-0.092 0.61-0.106 0.946l-0 0.013-0.039 0.355 0.002 0.019c-0 0.022-0.006 0.042-0.006 0.064 0 0 0 0.001 0 0.002 0 3.711 3.008 6.719 6.719 6.719 2.475 0 4.637-1.338 5.803-3.33l0.017-0.032c0.060-0.105 0.095-0.231 0.095-0.365 0-0.414-0.336-0.75-0.75-0.75-0.272 0-0.51 0.145-0.642 0.361l-0.002 0.003c-0.919 1.572-2.598 2.611-4.52 2.611-2.876 0-5.208-2.326-5.218-5.2v-0.001l0.127-1.143c0.534-2.357 2.609-4.091 5.089-4.095h0.001zM29.76 14.049c0.001-0.008-0.003-0.015-0.002-0.023 0-0.020 0.006-0.039 0.006-0.060-0.001-3.713-3.011-6.723-6.724-6.723-2.476 0-4.639 1.338-5.806 3.33l-0.017 0.032c-0.060 0.105-0.095 0.231-0.095 0.365 0 0.414 0.336 0.75 0.75 0.75 0.272 0 0.51-0.145 0.642-0.361l0.002-0.003c0.92-1.572 2.6-2.611 4.523-2.611 2.876 0 5.208 2.324 5.223 5.196v0.001l-0.128 1.155c-0.534 2.359-2.612 4.094-5.096 4.094-1.923 0-3.603-1.040-4.508-2.588l-0.013-0.025c-0.133-0.22-0.372-0.365-0.643-0.365-0.414 0-0.75 0.336-0.75 0.75 0 0.134 0.035 0.26 0.097 0.368l-0.002-0.004c1.059 1.797 2.881 3.048 5.010 3.307l0.032 0.003-6.797 4.539c-0.202 0.136-0.333 0.364-0.333 0.623 0 0.414 0.336 0.749 0.749 0.749 0.155 0 0.299-0.047 0.419-0.128l-0.003 0.002 8.568-5.721-5.796 8.883c-0.076 0.115-0.121 0.257-0.121 0.409 0 0.415 0.336 0.751 0.751 0.751 0.262 0 0.492-0.134 0.626-0.337l0.002-0.003 7.362-11.283-0.918 8.271c-0.003 0.024-0.004 0.052-0.004 0.080 0 0.386 0.29 0.704 0.665 0.748l0.003 0c0.027 0.002 0.055 0.004 0.082 0.004 0 0 0 0 0 0 0.385 0 0.703-0.291 0.745-0.665l0-0.003 1.355-12.197c0.046-0.247 0.080-0.543 0.095-0.843l0.001-0.016z"
    />
  </g>
</svg>